<svg xmlns="http://www.w3.org/2000/svg" aria-hidden="true" style="position:absolute;width:0;height:0;overflow:hidden">
<defs>
<linearGradient id="myGradient" x1="0%" y1="0%" x2="100%" y2="100%">
      <stop offset="0%" style="stop-color: #F84119; stop-opacity: 1" />
      <stop offset="68%" style="stop-color: #F89F19; stop-opacity: 1" />
    </linearGradient>

<symbol id="icon_close_outline_white" width="24" height="24" viewBox="0 0 32 32"><path fill="none" stroke="#f8f8f8" stroke-linecap="round" stroke-linejoin="round" stroke-width="1.333" d="M23 23 9 9m14 0L9 23" style="stroke:var(--color1, #f8f8f8)"/></symbol>
<symbol id="icon_close_outline_black" width="24" height="24" viewBox="0 0 32 32"><path stroke-linecap="round" stroke-linejoin="round" stroke-width="1.333" d="M23 23 9 9m14 0L9 23" style="stroke:var(--color1, #151515)"/></symbol>
<symbol id="icon_close_outline_hover" width="24" height="24" viewBox="0 0 32 32"><path fill="none" stroke="#f87719" stroke-linecap="round" stroke-linejoin="round" stroke-width="1.333" d="M23 23 9 9m14 0L9 23" style="stroke:var(--color4, #f87719)"/></symbol>

<symbol id="icon_black_forward_small" width="24" height="24" viewBox="0 0 32 32"><path fill="none" stroke="#595959" stroke-linecap="round" stroke-linejoin="round" stroke-width="4" d="M22.75 2.5 9.25 16l13.5 13.5" style="stroke:var(--color2, #595959)"/></symbol>
<symbol id="icon_grey_forward_small" width="24" height="24" viewBox="0 0 32 32"><path fill="none" stroke="#b7b7b7" stroke-linecap="round" stroke-linejoin="round" stroke-width="4" d="M22.75 2.5 9.25 16l13.5 13.5" style="stroke:var(--color3, #b7b7b7)"/></symbol>
<symbol id="icon_white_forward_small" width="24" height="24" viewBox="0 0 32 32"><path fill="none" stroke="#f8f8f8" stroke-linecap="round" stroke-linejoin="round" stroke-width="3.556" d="M23 2 9 16l14 14" style="stroke:var(--color1, #f8f8f8)"/></symbol>

<symbol id="icon_black_forward_large" width="28" height="28" viewBox="0 0 32 32"><path fill="none" stroke="#595959" stroke-linecap="round" stroke-linejoin="round" stroke-width="4" d="M22.75 2.5 9.25 16l13.5 13.5" style="stroke:var(--color2, #595959)"/></symbol>
<symbol id="icon_grey_forward_large" width="28" height="28" viewBox="0 0 32 32"><path fill="none" stroke="#b7b7b7" stroke-linecap="round" stroke-linejoin="round" stroke-width="4" d="M22.75 2.5 9.25 16l13.5 13.5" style="stroke:var(--color3, #b7b7b7)"/></symbol>
<symbol id="icon_white_forward_large" width="28" height="28" viewBox="0 0 32 32"><path fill="none" stroke="#f8f8f8" stroke-linecap="round" stroke-linejoin="round" stroke-width="3.556" d="M23 2 9 16l14 14" style="stroke:var(--color1, #f8f8f8)"/></symbol>

<symbol id="icon_black_three_dots" width="12" height="14" viewBox="0 0 32 32"><path fill="#595959" d="M2.665 15.068c0-.742.252-1.366.756-1.869.504-.517 1.187-.776 2.048-.776.875 0 1.558.259 2.048.776.504.504.756 1.127.756 1.869s-.252 1.366-.756 1.869c-.491.504-1.173.756-2.048.756-.862 0-1.545-.252-2.048-.756s-.756-1.127-.756-1.869zm11.335 0c0-.742.252-1.366.756-1.869.504-.517 1.187-.776 2.048-.776.875 0 1.558.259 2.048.776.504.504.756 1.127.756 1.869s-.252 1.366-.756 1.869c-.491.504-1.173.756-2.048.756-.862 0-1.545-.252-2.048-.756S14 15.81 14 15.068zm11.335 0c0-.742.252-1.366.756-1.869.504-.517 1.187-.776 2.048-.776.875 0 1.558.259 2.048.776.504.504.756 1.127.756 1.869s-.252 1.366-.756 1.869c-.491.504-1.173.756-2.048.756-.862 0-1.544-.252-2.048-.756s-.756-1.127-.756-1.869z" style="fill:var(--color2, #595959)"/></symbol>
<symbol id="icon_grey_three_dots" width="12" height="14" viewBox="0 0 32 32"><path fill="#b7b7b7" d="M2.665 15.068c0-.742.252-1.366.756-1.869.504-.517 1.187-.776 2.048-.776.875 0 1.558.259 2.048.776.504.504.756 1.127.756 1.869s-.252 1.366-.756 1.869c-.491.504-1.173.756-2.048.756-.862 0-1.545-.252-2.048-.756s-.756-1.127-.756-1.869zm11.335 0c0-.742.252-1.366.756-1.869.504-.517 1.187-.776 2.048-.776.875 0 1.558.259 2.048.776.504.504.756 1.127.756 1.869s-.252 1.366-.756 1.869c-.491.504-1.173.756-2.048.756-.862 0-1.545-.252-2.048-.756S14 15.81 14 15.068zm11.335 0c0-.742.252-1.366.756-1.869.504-.517 1.187-.776 2.048-.776.875 0 1.558.259 2.048.776.504.504.756 1.127.756 1.869s-.252 1.366-.756 1.869c-.491.504-1.173.756-2.048.756-.862 0-1.544-.252-2.048-.756s-.756-1.127-.756-1.869z" style="fill:var(--color3, #b7b7b7)"/></symbol>

<symbol id="icon_black_circle_small" width="32" height="32" viewBox="0 0 32 32"><path fill="none" stroke="#595959" stroke-width=".8" d="M31.6 16c0 8.616-6.984 15.6-15.6 15.6S.4 24.616.4 16 7.384.4 16 .4 31.6 7.384 31.6 16z" style="stroke:var(--color2, #595959)"/></symbol>
<symbol id="icon_grey_linear_circle_small" width="32" height="32" viewBox="0 0 32 32"><path d="M32 16c0 8.837-7.163 16-16 16S0 24.837 0 16 7.163 0 16 0s16 7.163 16 16z" fill="url(#myGradient)"/></symbol>
<symbol id="icon_grey_circle_small" width="32" height="32" viewBox="0 0 32 32"><path fill="none" stroke="#b7b7b7" stroke-width=".8" d="M31.6 16c0 8.616-6.984 15.6-15.6 15.6S.4 24.616.4 16 7.384.4 16 .4 31.6 7.384 31.6 16z" style="stroke:var(--color3, #b7b7b7)"/></symbol>

<symbol id="icon_black_circle_large" width="40" height="40" viewBox="0 0 32 32"><path fill="none" stroke="#595959" stroke-width=".8" d="M31.6 16c0 8.616-6.984 15.6-15.6 15.6S.4 24.616.4 16 7.384.4 16 .4 31.6 7.384 31.6 16z" style="stroke:var(--color2, #595959)"/></symbol>
<symbol id="icon_grey_linear_circle_large" width="40" height="40" viewBox="0 0 32 32"><path d="M32 16c0 8.837-7.163 16-16 16S0 24.837 0 16 7.163 0 16 0s16 7.163 16 16z" fill="url(#myGradient)"/></symbol>
<symbol id="icon_grey_circle_large" width="40" height="40" viewBox="0 0 32 32"><path fill="none" stroke="#b7b7b7" stroke-width=".8" d="M31.6 16c0 8.616-6.984 15.6-15.6 15.6S.4 24.616.4 16 7.384.4 16 .4 31.6 7.384 31.6 16z" style="stroke:var(--color3, #b7b7b7)"/></symbol>

<symbol id="icon_star_small" width="10" height="10" viewBox="0 0 32 32"><path d="M24.6 30H24l-8-5.8L8 30H6.8s-.2-.4-.4-.6v-.6l3.2-9.2-8.2-5.8s-.4-.2-.4-.4v-.6c0-.2 0-.4.4-.6s.4 0 .6 0h10l3-9.4c0-.2 0-.4.4-.6h1.2s.2.2.4.6l3 9.4h10.6s.2.4.4.6v.6c0 .2-.2.4-.4.4l-8.2 5.6 3.2 9.2v.8l-.4.4h-.4z" fill="url(#myGradient)"/></symbol>
<symbol id="icon_star_medium" width="14" height="14" viewBox="0 0 32 32"><path d="M24.6 30H24l-8-5.8L8 30H6.8s-.2-.4-.4-.6v-.6l3.2-9.2-8.2-5.8s-.4-.2-.4-.4v-.6c0-.2 0-.4.4-.6s.4 0 .6 0h10l3-9.4c0-.2 0-.4.4-.6h1.2s.2.2.4.6l3 9.4h10.6s.2.4.4.6v.6c0 .2-.2.4-.4.4l-8.2 5.6 3.2 9.2v.8l-.4.4h-.4z" fill="url(#myGradient)"/></symbol>
<symbol id="icon_star_large" width="20" height="20" viewBox="0 0 32 32"><path d="M24.6 30H24l-8-5.8L8 30H6.8s-.2-.4-.4-.6v-.6l3.2-9.2-8.2-5.8s-.4-.2-.4-.4v-.6c0-.2 0-.4.4-.6s.4 0 .6 0h10l3-9.4c0-.2 0-.4.4-.6h1.2s.2.2.4.6l3 9.4h10.6s.2.4.4.6v.6c0 .2-.2.4-.4.4l-8.2 5.6 3.2 9.2v.8l-.4.4h-.4z" fill="url(#myGradient)"/></symbol>

<symbol id="icon_star_outline_small" width="10" height="10" viewBox="0 0 32 32"><path d="M24.6 30H24l-8-5.8L8 30c-.4.2-.8.2-1.2 0s-.4-.8-.4-1.2l3.2-9.2-8.2-5.8C1 13.6.8 13 1 12.6s.6-.8 1-.8h10l3-9.4c.2-.8 1.6-.8 2 0l3 9.4h10c.4 0 .8.2 1 .8s0 .8-.4 1.2l-8.2 5.6 3.2 9.2c0 .4 0 .8-.4 1.2h-.6zM16 21.8h.6l6 4.4-2.4-7c0-.4 0-.8.4-1.2l6-4.2H19c-.4 0-.8-.2-1-.6l-2.2-7-2.2 7c0 .4-.6.6-1 .6H5l6 4.2c.4.2.6.8.4 1.2l-2.4 7 6-4.4h.6z" fill="url(#myGradient)"/></symbol>
<symbol id="icon_star_outline_medium" width="14" height="14" viewBox="0 0 32 32"><path d="M24.6 30H24l-8-5.8L8 30c-.4.2-.8.2-1.2 0s-.4-.8-.4-1.2l3.2-9.2-8.2-5.8C1 13.6.8 13 1 12.6s.6-.8 1-.8h10l3-9.4c.2-.8 1.6-.8 2 0l3 9.4h10c.4 0 .8.2 1 .8s0 .8-.4 1.2l-8.2 5.6 3.2 9.2c0 .4 0 .8-.4 1.2h-.6zM16 21.8h.6l6 4.4-2.4-7c0-.4 0-.8.4-1.2l6-4.2H19c-.4 0-.8-.2-1-.6l-2.2-7-2.2 7c0 .4-.6.6-1 .6H5l6 4.2c.4.2.6.8.4 1.2l-2.4 7 6-4.4h.6z" fill="url(#myGradient)"/></symbol>
<symbol id="icon_star_outline_large" width="20" height="20" viewBox="0 0 32 32"><path d="M24.6 30H24l-8-5.8L8 30c-.4.2-.8.2-1.2 0s-.4-.8-.4-1.2l3.2-9.2-8.2-5.8C1 13.6.8 13 1 12.6s.6-.8 1-.8h10l3-9.4c.2-.8 1.6-.8 2 0l3 9.4h10c.4 0 .8.2 1 .8s0 .8-.4 1.2l-8.2 5.6 3.2 9.2c0 .4 0 .8-.4 1.2h-.6zM16 21.8h.6l6 4.4-2.4-7c0-.4 0-.8.4-1.2l6-4.2H19c-.4 0-.8-.2-1-.6l-2.2-7-2.2 7c0 .4-.6.6-1 .6H5l6 4.2c.4.2.6.8.4 1.2l-2.4 7 6-4.4h.6z" fill="url(#myGradient)"/></symbol>

<symbol id="icon_star_half_small" width="10" height="10" viewBox="0 0 32 32"><path d="M24.6 30H24l-8-5.8L8 30c-.4.2-.8.2-1.2 0s-.4-.8-.4-1.2l3.2-9.2-8.2-5.8c-.4 0-.6-.8-.4-1.2s.6-.8 1-.8h10l3-9.4c0-.8 1.6-.8 2 0l3 9.4h10c.4 0 .8 0 1 .8s0 .8-.4 1.2l-8.2 5.6 3.2 9.2c0 .4 0 .8-.4 1.2h-.6zM16 21.8h.6l6 4.4-2.4-7c0-.4 0-.8.4-1.2l6-4.2H19c-.4 0-.8 0-1-.6l-2.2-7-2.2 7c0 .4-.6.6-1 .6H5l6 4.2c.4.2.6.8.4 1.2l-2.4 7 6-4.4h1z" fill="url(#myGradient)"/><path d="M16 3v19.8L7.4 29l3.4-10L2 13h10.8L16 3z" fill="url(#myGradient)"/></symbol>
<symbol id="icon_star_half_medium" width="14" height="14" viewBox="0 0 32 32"><path d="M24.6 30H24l-8-5.8L8 30c-.4.2-.8.2-1.2 0s-.4-.8-.4-1.2l3.2-9.2-8.2-5.8c-.4 0-.6-.8-.4-1.2s.6-.8 1-.8h10l3-9.4c0-.8 1.6-.8 2 0l3 9.4h10c.4 0 .8 0 1 .8s0 .8-.4 1.2l-8.2 5.6 3.2 9.2c0 .4 0 .8-.4 1.2h-.6zM16 21.8h.6l6 4.4-2.4-7c0-.4 0-.8.4-1.2l6-4.2H19c-.4 0-.8 0-1-.6l-2.2-7-2.2 7c0 .4-.6.6-1 .6H5l6 4.2c.4.2.6.8.4 1.2l-2.4 7 6-4.4h1z" fill="url(#myGradient)"/><path d="M16 3v19.8L7.4 29l3.4-10L2 13h10.8L16 3z" fill="url(#myGradient)"/></symbol>
<symbol id="icon_star_half_large" width="20" height="20" viewBox="0 0 32 32"><path d="M24.6 30H24l-8-5.8L8 30c-.4.2-.8.2-1.2 0s-.4-.8-.4-1.2l3.2-9.2-8.2-5.8c-.4 0-.6-.8-.4-1.2s.6-.8 1-.8h10l3-9.4c0-.8 1.6-.8 2 0l3 9.4h10c.4 0 .8 0 1 .8s0 .8-.4 1.2l-8.2 5.6 3.2 9.2c0 .4 0 .8-.4 1.2h-.6zM16 21.8h.6l6 4.4-2.4-7c0-.4 0-.8.4-1.2l6-4.2H19c-.4 0-.8 0-1-.6l-2.2-7-2.2 7c0 .4-.6.6-1 .6H5l6 4.2c.4.2.6.8.4 1.2l-2.4 7 6-4.4h1z" fill="url(#myGradient)"/><path d="M16 3v19.8L7.4 29l3.4-10L2 13h10.8L16 3z" fill="url(#myGradient)"/></symbol>

<symbol id="icon_heart" width="14" height="12.88" viewBox="0 0 34 32"><path fill="#f87719" style="fill: var(--color1, #f87719)" d="M17.231 31.705l-2.412-2.412c-8.96-7.926-14.818-13.268-14.818-19.815 0-5.342 4.135-9.477 9.477-9.477 2.929 0 5.858 1.378 7.754 3.618 1.895-2.24 4.825-3.618 7.754-3.618 5.342 0 9.477 4.135 9.477 9.477 0 6.548-5.858 11.889-14.818 19.815l-2.412 2.412z"></path></symbol>


</defs></svg>